<svg xmlns="http://www.w3.org/2000/svg" viewBox="0 0 1440 320"><path fill="#00cba9" fill-opacity="1" d="M0,32L18.5,26.7C36.9,21,74,11,111,5.3C147.7,0,185,0,222,37.3C258.5,75,295,149,332,149.3C369.2,149,406,75,443,90.7C480,107,517,213,554,245.3C590.8,277,628,235,665,202.7C701.5,171,738,149,775,122.7C812.3,96,849,64,886,80C923.1,96,960,160,997,181.3C1033.8,203,1071,181,1108,170.7C1144.6,160,1182,160,1218,149.3C1255.4,139,1292,117,1329,133.3C1366.2,149,1403,203,1422,229.3L1440,256L1440,320L1421.5,320C1403.1,320,1366,320,1329,320C1292.3,320,1255,320,1218,320C1181.5,320,1145,320,1108,320C1070.8,320,1034,320,997,320C960,320,923,320,886,320C849.2,320,812,320,775,320C738.5,320,702,320,665,320C627.7,320,591,320,554,320C516.9,320,480,320,443,320C406.2,320,369,320,332,320C295.4,320,258,320,222,320C184.6,320,148,320,111,320C73.8,320,37,320,18,320L0,320Z"></path></svg>